<svg width="48" height="48" viewBox="0 0 48 48" fill="none" xmlns="http://www.w3.org/2000/svg">
<rect width="48" height="48" rx="4.11948" fill="#7553FF"/>
<path d="M9.33603 25.8422C12.6062 26.2308 15.6506 27.7084 17.9793 30.037C20.3079 32.3657 21.7855 35.41 22.1741 38.6803C23.7952 37.7457 25.1512 36.4131 26.114 34.8085C27.0767 33.204 27.6144 31.3804 27.6761 29.5102C30.7556 28.4269 33.4448 26.4547 35.4035 23.8431C37.3622 21.2315 38.5025 18.0978 38.6802 14.8381C38.6802 13.3789 38.1005 11.9794 37.0687 10.9476C36.0369 9.91577 34.6374 9.33609 33.1782 9.33609C29.9185 9.51382 26.7848 10.6541 24.1732 12.6128C21.5616 14.5715 19.5894 17.2606 18.5061 20.3402C16.6359 20.4019 14.8123 20.9396 13.2077 21.9023C11.6032 22.8651 10.2706 24.2211 9.33603 25.8422Z" stroke="white" stroke-width="2.05974" stroke-linecap="round" stroke-linejoin="round"/>
<path d="M14.8381 27.6761C12.9293 28.7537 11.3858 30.3768 10.4055 32.3374C9.42527 34.2979 9.05285 36.5066 9.33603 38.6802C11.5096 38.9634 13.7183 38.5909 15.6788 37.6107C17.6394 36.6304 19.2625 35.0869 20.3401 33.1781" stroke="white" stroke-width="2.05974" stroke-linecap="round" stroke-linejoin="round"/>
<path d="M29.5101 20.3401C30.523 20.3401 31.3441 19.519 31.3441 18.5061C31.3441 17.4932 30.523 16.6721 29.5101 16.6721C28.4972 16.6721 27.6761 17.4932 27.6761 18.5061C27.6761 19.519 28.4972 20.3401 29.5101 20.3401Z" stroke="white" stroke-width="2.05974" stroke-linecap="round" stroke-linejoin="round"/>
</svg>
