<svg width="32" height="32" viewBox="0 0 32 32" fill="none" xmlns="http://www.w3.org/2000/svg">
<rect width="32" height="32" rx="4.11948" fill="#7553FF"/>
<path d="M6.22401 17.2281C8.40416 17.4872 10.4337 18.4722 11.9862 20.0247C13.5386 21.5771 14.5236 23.6067 14.7827 25.7868C15.8635 25.1638 16.7675 24.2754 17.4093 23.2057C18.0511 22.136 18.4096 20.9203 18.4508 19.6735C20.5038 18.9513 22.2965 17.6365 23.6023 15.8954C24.9081 14.1544 25.6683 12.0652 25.7868 9.89208C25.7868 8.91926 25.4003 7.98629 24.7125 7.2984C24.0246 6.61051 23.0916 6.22406 22.1188 6.22406C19.9457 6.34255 17.8565 7.10275 16.1154 8.40855C14.3744 9.71435 13.0596 11.5071 12.3374 13.5601C11.0906 13.6013 9.87487 13.9597 8.80516 14.6015C7.73545 15.2434 6.84708 16.1474 6.22401 17.2281Z" stroke="white" stroke-width="2.05974" stroke-linecap="round" stroke-linejoin="round"/>
<path d="M9.89204 18.4507C8.61952 19.1692 7.59055 20.2512 6.93703 21.5583C6.28351 22.8653 6.03523 24.3377 6.22402 25.7868C7.67308 25.9756 9.14551 25.7273 10.4525 25.0738C11.7596 24.4203 12.8417 23.3913 13.5601 22.1188" stroke="white" stroke-width="2.05974" stroke-linecap="round" stroke-linejoin="round"/>
<path d="M19.6734 13.5601C20.3487 13.5601 20.8961 13.0127 20.8961 12.3374C20.8961 11.6621 20.3487 11.1147 19.6734 11.1147C18.9982 11.1147 18.4508 11.6621 18.4508 12.3374C18.4508 13.0127 18.9982 13.5601 19.6734 13.5601Z" stroke="white" stroke-width="2.05974" stroke-linecap="round" stroke-linejoin="round"/>
</svg>
