<svg width="650" height="650" viewBox="0 0 650 650" fill="none" xmlns="http://www.w3.org/2000/svg">
<g clip-path="url(#clip0_390_458)">
<path fill-rule="evenodd" clip-rule="evenodd" d="M308.559 381.853L266.132 339.427L181.279 424.279L223.705 466.706L181.279 424.279C133.824 445.168 105.636 454.042 53.9999 466.706L96.4263 509.132L138.853 551.558L138.853 551.558L181.279 593.984C193.943 542.348 202.817 514.16 223.706 466.706L223.706 466.706L308.559 381.853Z" fill="#FF0096"/>
<path d="M415.84 418.793C412.279 384.283 420.328 347.604 438.59 314.484L444.316 303.959L355.016 362.305L347.59 416.009L312.766 449.438C320.195 478.533 320.507 507.009 320.507 507.009C379.779 471.567 415.84 418.793 415.84 418.793Z" fill="url(#paint0_linear_390_458)"/>
<path d="M320.664 507.157C320.664 507.157 320.51 478.37 312.927 449.586L327.63 435.503C332.118 445.407 340.939 467.694 343.105 492.299C335.985 497.253 328.556 502.515 320.664 507.157Z" fill="url(#paint1_linear_390_458)"/>
<path opacity="0.75" d="M415.84 418.793C412.279 384.283 420.328 347.604 438.59 314.484L444.316 303.959L355.016 362.305L347.59 416.009L312.766 449.438C320.195 478.533 320.507 507.009 320.507 507.009C379.779 471.567 415.84 418.793 415.84 418.793Z" fill="url(#paint2_radial_390_458)"/>
<path d="M424.507 346.51C428.223 335.677 432.865 324.843 438.59 314.473L441.84 308.593C441.066 308.13 440.294 307.664 439.519 307.201L355.174 362.451L350.066 398.664C369.257 390.772 396.495 374.677 424.507 346.51Z" fill="url(#paint3_linear_390_458)"/>
<path d="M327.627 212.025C326.698 209.858 326.232 208.311 325.46 206.299C292.186 222.084 254.578 226.573 218.364 219.763C218.364 219.763 164.817 254.894 131.853 317.108C131.853 317.108 162.495 320.049 194.686 331.037L227.65 295.596L280.889 292.5C292.806 265.727 307.198 237.096 327.627 212.025Z" fill="url(#paint4_linear_390_458)"/>
<path d="M131.853 316.951C131.853 316.951 162.495 319.892 194.686 330.88L208.769 315.713C197.472 309.833 173.019 298.534 145.936 293.738C140.983 301.012 136.186 308.75 131.853 316.951Z" fill="url(#paint5_linear_390_458)"/>
<path opacity="0.75" d="M327.627 212.025C326.698 209.858 326.232 208.311 325.46 206.299C292.186 222.084 254.578 226.573 218.364 219.763C218.364 219.763 164.817 254.894 131.853 317.108C131.853 317.108 162.495 320.049 194.686 331.037L227.65 295.596L280.889 292.5C292.806 265.727 307.198 237.096 327.627 212.025Z" fill="url(#paint6_radial_390_458)"/>
<path d="M325.463 206.14C312.463 216.045 271.762 255.354 257.523 293.581L280.738 292.188C292.654 265.723 310.762 236.473 331.189 211.402L325.463 206.14Z" fill="url(#paint7_linear_390_458)"/>
<path d="M339.547 198.569C353.321 221.01 371.584 243.296 391.855 263.105C392.784 264.034 393.868 264.962 394.797 265.891C411.976 282.294 430.547 296.844 449.429 308.451C451.13 306.748 452.834 305.201 454.534 303.498C503.284 254.748 531.605 218.069 555.905 171.486C538.571 137.903 510.096 109.427 476.512 92.0933C429.929 116.391 393.405 144.557 344.5 193.462C342.797 195.165 341.096 196.867 339.547 198.569Z" fill="url(#paint8_linear_390_458)"/>
<path d="M555.745 171.48C588.708 108.182 584.532 74.1344 579.115 68.7177C573.698 63.3011 539.803 59.1226 476.353 92.0868C509.936 109.42 538.411 137.896 555.745 171.48Z" fill="url(#paint9_linear_390_458)"/>
<path d="M283.676 364.311C301.166 381.802 317.259 394.645 321.593 394.645C360.904 377.469 407.796 348.682 449.429 308.444C430.701 296.836 411.975 282.29 394.796 265.884C393.867 264.955 392.784 264.027 391.855 263.098C371.583 243.289 353.321 221.003 339.546 198.562C299.308 240.194 270.522 287.395 253.344 326.706C253.963 331.503 266.499 347.29 283.676 364.311Z" fill="url(#paint10_linear_390_458)"/>
<path opacity="0.75" d="M283.676 364.311C301.166 381.802 317.259 394.645 321.593 394.645C360.904 377.469 407.796 348.682 449.429 308.444C430.701 296.836 411.975 282.29 394.796 265.884C393.867 264.955 392.784 264.027 391.855 263.098C371.583 243.289 353.321 221.003 339.546 198.562C299.308 240.194 270.522 287.395 253.344 326.706C253.963 331.503 266.499 347.29 283.676 364.311Z" fill="url(#paint11_radial_390_458)"/>
<path opacity="0.5" d="M394.796 265.884C393.867 264.955 392.784 264.027 391.855 263.098C371.583 243.289 353.321 221.003 339.546 198.562C338.463 199.646 337.534 200.729 336.605 201.812C364.772 255.051 450.821 305.811 385.201 332.586C342.179 350.228 322.833 371.123 312.463 389.694C316.796 392.944 320.201 394.645 321.75 394.645C361.059 377.469 407.951 348.682 449.583 308.444C430.546 296.836 411.975 282.29 394.796 265.884Z" fill="url(#paint12_radial_390_458)"/>
<path opacity="0.75" d="M310.605 383.654C346.201 362.916 390.309 331.036 431.63 290.642L310.605 383.654Z" fill="url(#paint13_radial_390_458)"/>
<path d="M283.674 364.314C266.65 347.29 254.115 331.503 253.341 326.707L229.198 337.386C226.412 340.17 242.198 360.753 264.793 383.194C287.232 405.636 307.816 421.574 310.603 418.79L321.59 394.648C317.257 394.648 301.161 381.802 283.674 364.314Z" fill="url(#paint14_linear_390_458)"/>
<path d="M283.674 364.314C266.65 347.29 254.115 331.503 253.341 326.707L229.198 337.386C226.412 340.17 242.198 360.753 264.793 383.194C287.232 405.636 307.816 421.574 310.603 418.79L321.59 394.648C317.257 394.648 301.161 381.802 283.674 364.314Z" fill="url(#paint15_linear_390_458)"/>
<path d="M549.095 183.867C549.404 183.403 555.595 171.95 555.75 171.486C538.416 137.903 509.938 109.427 476.355 92.0933C475.892 92.4028 475.429 92.5575 474.963 92.867C507.929 111.593 545.225 153.689 549.095 183.867Z" fill="url(#paint16_linear_390_458)"/>
<path opacity="0.75" d="M579.12 68.7177C573.704 63.3011 539.812 59.1226 476.358 92.0868C429.775 116.384 393.253 144.551 344.346 193.456C342.645 195.158 341.096 196.861 339.395 198.563C299.157 240.194 270.371 287.397 253.192 326.706C253.966 331.502 266.502 347.289 283.525 364.314C301.012 381.802 317.108 394.647 321.441 394.647C360.753 377.468 407.645 348.681 449.275 308.444C450.978 306.743 452.682 305.194 454.383 303.493C503.133 254.742 531.454 218.063 555.753 171.48C588.87 108.182 584.691 74.1344 579.12 68.7177Z" fill="url(#paint17_radial_390_458)"/>
<path d="M246.223 443.251C298.222 401.31 338.926 354.573 340.009 353.335L331.96 345.286C331.96 345.286 289.556 391.56 238.949 435.977L246.223 443.251Z" fill="url(#paint18_linear_390_458)"/>
<path d="M331.806 345.283C341.247 327.332 357.186 304.736 377.615 280.44C377.152 279.974 376.686 279.511 376.068 279.045C353.936 300.094 331.96 319.128 312.306 335.844L289.402 369.427L254.889 403.32C248.853 418.486 238.639 435.974 238.639 435.974C289.402 391.557 331.806 345.283 331.806 345.283Z" fill="url(#paint19_linear_390_458)"/>
<path d="M256.743 419.876C256.743 419.876 268.815 398.055 267.731 390.937L255.041 403.471C249.005 418.638 238.791 436.126 238.791 436.126C244.981 430.555 250.862 425.138 256.743 419.876Z" fill="url(#paint20_linear_390_458)"/>
<path d="M340.009 353.34C346.818 332.602 362.139 309.389 381.793 284.161C380.401 282.923 379.164 281.685 377.772 280.448C357.343 304.744 341.401 327.34 331.96 345.293C331.96 345.293 289.556 391.565 238.949 435.982L246.378 443.257C298.843 400.852 340.009 353.34 340.009 353.34Z" fill="url(#paint21_linear_390_458)"/>
<path d="M246.223 443.251C298.222 401.31 338.926 354.573 340.009 353.335L331.96 345.286C331.96 345.286 289.556 391.56 238.949 435.977L246.223 443.251Z" fill="url(#paint22_linear_390_458)"/>
<path opacity="0.75" d="M331.806 345.283C341.247 327.332 357.186 304.736 377.615 280.44C377.152 279.974 376.686 279.511 376.068 279.045C353.936 300.094 331.96 319.128 312.306 335.844L289.402 369.427L254.889 403.32C248.853 418.486 238.639 435.974 238.639 435.974C289.402 391.557 331.806 345.283 331.806 345.283Z" fill="url(#paint23_radial_390_458)"/>
<path opacity="0.75" d="M579.12 68.7182C573.704 63.3015 539.812 59.1231 476.358 92.0873C429.775 116.385 393.253 144.552 344.346 193.456C342.645 195.159 341.096 196.861 339.395 198.564C299.157 240.194 270.371 287.398 253.192 326.706C253.966 331.503 266.502 347.29 283.525 364.314C301.012 381.802 317.108 394.648 321.441 394.648C360.753 377.469 407.645 348.682 449.275 308.444C450.978 306.743 452.682 305.194 454.383 303.493C503.133 254.742 531.454 218.064 555.753 171.48C588.87 108.183 584.691 74.1349 579.12 68.7182Z" fill="url(#paint24_radial_390_458)"/>
<g opacity="0.16">
<path opacity="0.16" d="M468.463 289.564C448.034 277.493 426.831 261.089 406.713 241.125C386.747 221.16 370.343 199.958 358.272 179.375" stroke="black" stroke-width="1.25" stroke-miterlimit="10" stroke-linecap="round" stroke-linejoin="round"/>
<path opacity="0.16" d="M529.13 179.229C533.772 184.955 537.951 190.527 541.976 196.098" stroke="black" stroke-width="1.25" stroke-miterlimit="10" stroke-linecap="round" stroke-linejoin="round"/>
<g opacity="0.16">
<path opacity="0.16" d="M504.053 109.272C502.041 110.665 500.029 112.213 498.019 113.76C457.47 144.094 423.112 174.582 374.362 223.332C372.661 225.034 370.958 226.737 369.411 228.439C367.862 230.142 366.161 231.689 364.612 233.392" stroke="black" stroke-width="1.25" stroke-miterlimit="10" stroke-linecap="round" stroke-linejoin="round"/>
</g>
<path opacity="0.16" d="M446.948 275.489C489.816 231.846 517.211 198.727 543.053 158.798C544.137 157.251 545.066 155.703 545.995 154.155" stroke="black" stroke-width="1.25" stroke-miterlimit="10" stroke-linecap="round" stroke-linejoin="round"/>
</g>
<path d="M470.161 202.742C450.352 221.004 420.948 221.159 404.541 203.052C388.136 184.945 391.078 155.385 410.886 137.123C430.698 118.861 460.102 118.707 476.507 136.814C492.911 154.921 489.97 184.48 470.161 202.742Z" fill="url(#paint25_linear_390_458)"/>
<path d="M461.649 192.524C445.399 207.536 421.257 207.691 407.794 192.833C394.328 177.976 396.649 153.679 413.053 138.667C429.306 123.655 453.448 123.5 466.911 138.358C480.223 153.215 477.899 177.512 461.649 192.524Z" fill="url(#paint26_linear_390_458)"/>
<path d="M457.781 188.505C443.232 201.969 421.72 201.969 409.803 188.814C397.887 175.505 399.899 153.993 414.445 140.529C428.995 127.065 450.507 127.065 462.424 140.219C474.34 153.374 472.328 175.041 457.781 188.505Z" fill="url(#paint27_radial_390_458)"/>
<path opacity="0.5" d="M457.781 188.505C443.232 201.969 421.72 201.969 409.803 188.814C397.887 175.505 399.899 153.993 414.445 140.529C428.995 127.065 450.507 127.065 462.424 140.219C474.34 153.374 472.328 175.041 457.781 188.505Z" fill="url(#paint28_radial_390_458)"/>
<path opacity="0.5" d="M459.637 150.129C465.053 156.165 467.995 163.748 468.612 171.641C472.017 160.653 470.161 148.736 462.424 140.225C450.507 126.915 428.995 127.07 414.445 140.534C413.053 141.927 411.661 143.32 410.424 144.868C426.982 134.808 447.411 136.665 459.637 150.129Z" fill="black"/>
<path d="M462.424 140.225C450.507 126.915 428.995 127.07 414.445 140.534C399.899 153.998 397.887 175.51 409.803 188.82C411.041 190.213 412.279 191.141 411.507 190.522C400.828 179.843 404.078 157.868 417.853 144.093C428.995 132.951 450.353 128.927 462.424 140.225Z" fill="url(#paint29_linear_390_458)"/>
<path opacity="0.5" d="M462.427 140.219C450.355 128.767 428.843 132.945 417.855 143.934C404.701 157.088 401.142 177.826 410.118 188.969C411.51 189.743 412.13 191.136 411.355 190.517C410.892 190.053 410.427 189.588 410.118 188.969C409.963 188.969 409.809 188.815 409.652 188.815C421.569 202.124 443.081 201.969 457.63 188.505C472.331 175.041 474.498 153.529 462.427 140.219Z" fill="url(#paint30_radial_390_458)"/>
<path d="M556.056 171.015C538.723 137.431 510.556 109.11 476.973 91.7764" stroke="#008EE6" stroke-width="1.875" stroke-miterlimit="10" stroke-linecap="round" stroke-linejoin="round"/>
<path d="M449.429 308.444C430.701 296.836 411.975 282.29 394.796 265.884C393.867 264.955 392.784 264.027 391.855 263.098C371.583 243.289 353.321 221.003 339.546 198.562" stroke="#008EE6" stroke-width="1.875" stroke-miterlimit="10" stroke-linecap="round" stroke-linejoin="round"/>
<ellipse cx="50" cy="500" rx="78" ry="73" fill="#FF008D"/>
<ellipse cx="121" cy="544" rx="78" ry="73" fill="#FF008D"/>
<ellipse cx="209" cy="591" rx="78" ry="73" fill="#FF008D"/>
<ellipse cx="318" cy="638" rx="78" ry="73" fill="#FF008D"/>
<ellipse cx="53" cy="606" rx="78" ry="73" fill="#FF2985"/>
<ellipse cx="162" cy="638" rx="78" ry="73" fill="#E92A7C"/>
<ellipse cx="248" cy="664" rx="78" ry="73" fill="#E92A7C"/>
<ellipse cx="53" cy="606" rx="78" ry="73" fill="#E92A7C"/>
</g>
<defs>
<linearGradient id="paint0_linear_390_458" x1="265.518" y1="521.739" x2="424.233" y2="350.575" gradientUnits="userSpaceOnUse">
<stop stop-color="#BD2719"/>
<stop offset="0.2151" stop-color="#D41A10"/>
<stop offset="0.5049" stop-color="#EC0C07"/>
<stop offset="0.774" stop-color="#FA0302"/>
<stop offset="1" stop-color="#FF0000"/>
</linearGradient>
<linearGradient id="paint1_linear_390_458" x1="357.795" y1="441.537" x2="308.003" y2="490.441" gradientUnits="userSpaceOnUse">
<stop stop-color="#FC8D41"/>
<stop offset="0.0900324" stop-color="#FC7837"/>
<stop offset="0.294" stop-color="#FD4D24"/>
<stop offset="0.4922" stop-color="#FE2C14"/>
<stop offset="0.6802" stop-color="#FF1409"/>
<stop offset="0.854" stop-color="#FF0502"/>
<stop offset="1" stop-color="#FF0000"/>
</linearGradient>
<radialGradient id="paint2_radial_390_458" cx="0" cy="0" r="1" gradientUnits="userSpaceOnUse" gradientTransform="translate(242.625 500.124) rotate(45) scale(214.728)">
<stop offset="0.00134333" stop-color="#FFED1C"/>
<stop offset="0.1997" stop-color="#FFEE2B" stop-opacity="0.8013"/>
<stop offset="0.5839" stop-color="#FFF254" stop-opacity="0.4167"/>
<stop offset="1" stop-color="#FFF686" stop-opacity="0"/>
</radialGradient>
<linearGradient id="paint3_linear_390_458" x1="361.508" y1="387.297" x2="607.509" y2="102.17" gradientUnits="userSpaceOnUse">
<stop stop-color="#BD2719"/>
<stop offset="0.2151" stop-color="#D41A10"/>
<stop offset="0.5049" stop-color="#EC0C07"/>
<stop offset="0.774" stop-color="#FA0302"/>
<stop offset="1" stop-color="#FF0000"/>
</linearGradient>
<linearGradient id="paint4_linear_390_458" x1="112.825" y1="323.045" x2="262.709" y2="249.486" gradientUnits="userSpaceOnUse">
<stop stop-color="#BD2719"/>
<stop offset="0.2151" stop-color="#D41A10"/>
<stop offset="0.5049" stop-color="#EC0C07"/>
<stop offset="0.774" stop-color="#FA0302"/>
<stop offset="1" stop-color="#FF0000"/>
</linearGradient>
<linearGradient id="paint5_linear_390_458" x1="198.388" y1="279.617" x2="151.262" y2="335.633" gradientUnits="userSpaceOnUse">
<stop stop-color="#FC8D41"/>
<stop offset="0.0900324" stop-color="#FC7837"/>
<stop offset="0.294" stop-color="#FD4D24"/>
<stop offset="0.4922" stop-color="#FE2C14"/>
<stop offset="0.6802" stop-color="#FF1409"/>
<stop offset="0.854" stop-color="#FF0502"/>
<stop offset="1" stop-color="#FF0000"/>
</linearGradient>
<radialGradient id="paint6_radial_390_458" cx="0" cy="0" r="1" gradientUnits="userSpaceOnUse" gradientTransform="translate(221.286 414.757) rotate(45) scale(230.961)">
<stop offset="0.00134333" stop-color="#FFED1C"/>
<stop offset="0.1997" stop-color="#FFEE2B" stop-opacity="0.8013"/>
<stop offset="0.5839" stop-color="#FFF254" stop-opacity="0.4167"/>
<stop offset="1" stop-color="#FFF686" stop-opacity="0"/>
</radialGradient>
<linearGradient id="paint7_linear_390_458" x1="320.095" y1="248.547" x2="78.3635" y2="259.852" gradientUnits="userSpaceOnUse">
<stop stop-color="#BD2719"/>
<stop offset="0.2151" stop-color="#D41A10"/>
<stop offset="0.5049" stop-color="#EC0C07"/>
<stop offset="0.774" stop-color="#FA0302"/>
<stop offset="1" stop-color="#FF0000"/>
</linearGradient>
<linearGradient id="paint8_linear_390_458" x1="407.553" y1="144.92" x2="504.834" y2="242.201" gradientUnits="userSpaceOnUse">
<stop stop-color="#BBCACC"/>
<stop offset="0.3717" stop-color="white"/>
<stop offset="1" stop-color="#99AFB3"/>
</linearGradient>
<linearGradient id="paint9_linear_390_458" x1="572.447" y1="138.331" x2="519.488" y2="69.6015" gradientUnits="userSpaceOnUse">
<stop stop-color="#008EE6"/>
<stop offset="0.688" stop-color="#80DAFE"/>
<stop offset="0.7325" stop-color="#76D5FB"/>
<stop offset="0.8071" stop-color="#5CC8F3"/>
<stop offset="0.9026" stop-color="#32B2E6"/>
<stop offset="1" stop-color="#0099D6"/>
</linearGradient>
<linearGradient id="paint10_linear_390_458" x1="386.116" y1="355.553" x2="275.565" y2="245.594" gradientUnits="userSpaceOnUse">
<stop stop-color="#008EE6"/>
<stop offset="0.0001" stop-color="#008EE6"/>
<stop offset="0.585" stop-color="#6DCFFA"/>
<stop offset="0.688" stop-color="#80DAFE"/>
<stop offset="0.7325" stop-color="#76D5FB"/>
<stop offset="0.8071" stop-color="#5CC8F3"/>
<stop offset="0.9026" stop-color="#32B2E6"/>
<stop offset="1" stop-color="#0099D6"/>
</linearGradient>
<radialGradient id="paint11_radial_390_458" cx="0" cy="0" r="1" gradientUnits="userSpaceOnUse" gradientTransform="translate(311.065 392.015) rotate(45) scale(105.191 192.53)">
<stop stop-opacity="0.75"/>
<stop offset="1" stop-opacity="0"/>
</radialGradient>
<radialGradient id="paint12_radial_390_458" cx="0" cy="0" r="1" gradientUnits="userSpaceOnUse" gradientTransform="translate(433.653 367.234) rotate(45) scale(105.191 192.53)">
<stop stop-opacity="0.75"/>
<stop offset="1" stop-opacity="0"/>
</radialGradient>
<radialGradient id="paint13_radial_390_458" cx="0" cy="0" r="1" gradientUnits="userSpaceOnUse" gradientTransform="translate(373.403 353.391) rotate(43.8644) scale(16.4788 79.1248)">
<stop stop-color="#440063" stop-opacity="0.75"/>
<stop offset="1" stop-color="#420061" stop-opacity="0"/>
</radialGradient>
<linearGradient id="paint14_linear_390_458" x1="242.954" y1="325.769" x2="312.295" y2="416.818" gradientUnits="userSpaceOnUse">
<stop/>
<stop offset="0.1962" stop-color="#4D4D4C"/>
<stop offset="0.7655"/>
</linearGradient>
<linearGradient id="paint15_linear_390_458" x1="242.954" y1="325.769" x2="312.295" y2="416.818" gradientUnits="userSpaceOnUse">
<stop stop-opacity="0"/>
<stop offset="0.1975" stop-color="#CFDCDE" stop-opacity="0.5"/>
<stop offset="0.7655" stop-opacity="0"/>
</linearGradient>
<linearGradient id="paint16_linear_390_458" x1="388.193" y1="109.549" x2="547.208" y2="145.857" gradientUnits="userSpaceOnUse">
<stop stop-color="#BBCACC"/>
<stop offset="0.3717" stop-color="white"/>
<stop offset="1" stop-color="#99AFB3"/>
</linearGradient>
<radialGradient id="paint17_radial_390_458" cx="0" cy="0" r="1" gradientUnits="userSpaceOnUse" gradientTransform="translate(435.392 308.771) rotate(44.2342) scale(67.8697 219.784)">
<stop stop-color="#440063" stop-opacity="0.75"/>
<stop offset="1" stop-color="#420061" stop-opacity="0"/>
</radialGradient>
<linearGradient id="paint18_linear_390_458" x1="234.561" y1="429.447" x2="417.286" y2="311.632" gradientUnits="userSpaceOnUse">
<stop stop-color="#BD2719"/>
<stop offset="0.2151" stop-color="#D41A10"/>
<stop offset="0.5049" stop-color="#EC0C07"/>
<stop offset="0.774" stop-color="#FA0302"/>
<stop offset="1" stop-color="#FF0000"/>
</linearGradient>
<linearGradient id="paint19_linear_390_458" x1="204.878" y1="435.657" x2="299.119" y2="363.905" gradientUnits="userSpaceOnUse">
<stop stop-color="#BD2719"/>
<stop offset="0.2151" stop-color="#D41A10"/>
<stop offset="0.5049" stop-color="#EC0C07"/>
<stop offset="0.774" stop-color="#FA0302"/>
<stop offset="1" stop-color="#FF0000"/>
</linearGradient>
<linearGradient id="paint20_linear_390_458" x1="294.52" y1="375.253" x2="240.577" y2="425.639" gradientUnits="userSpaceOnUse">
<stop stop-color="#FC8D41"/>
<stop offset="0.0900324" stop-color="#FC7837"/>
<stop offset="0.294" stop-color="#FD4D24"/>
<stop offset="0.4922" stop-color="#FE2C14"/>
<stop offset="0.6802" stop-color="#FF1409"/>
<stop offset="0.854" stop-color="#FF0502"/>
<stop offset="1" stop-color="#FF0000"/>
</linearGradient>
<linearGradient id="paint21_linear_390_458" x1="292.754" y1="410.18" x2="356.682" y2="227.239" gradientUnits="userSpaceOnUse">
<stop stop-color="#BD2719"/>
<stop offset="0.2151" stop-color="#D41A10"/>
<stop offset="0.5049" stop-color="#EC0C07"/>
<stop offset="0.774" stop-color="#FA0302"/>
<stop offset="1" stop-color="#FF0000"/>
</linearGradient>
<linearGradient id="paint22_linear_390_458" x1="234.561" y1="429.447" x2="417.286" y2="311.632" gradientUnits="userSpaceOnUse">
<stop stop-color="#BD2719"/>
<stop offset="0.2151" stop-color="#D41A10"/>
<stop offset="0.5049" stop-color="#EC0C07"/>
<stop offset="0.774" stop-color="#FA0302"/>
<stop offset="1" stop-color="#FF0000"/>
</linearGradient>
<radialGradient id="paint23_radial_390_458" cx="0" cy="0" r="1" gradientUnits="userSpaceOnUse" gradientTransform="translate(232.981 413.432) rotate(-39.0499) scale(161.829 54.2682)">
<stop offset="0.00134333" stop-color="#FFED1C"/>
<stop offset="0.1997" stop-color="#FFEE2B" stop-opacity="0.8013"/>
<stop offset="0.5839" stop-color="#FFF254" stop-opacity="0.4167"/>
<stop offset="1" stop-color="#FFF686" stop-opacity="0"/>
</radialGradient>
<radialGradient id="paint24_radial_390_458" cx="0" cy="0" r="1" gradientUnits="userSpaceOnUse" gradientTransform="translate(388.445 198.112) rotate(44.2342) scale(67.8697 219.784)">
<stop stop-color="white" stop-opacity="0.5"/>
<stop offset="1" stop-color="white" stop-opacity="0"/>
</radialGradient>
<linearGradient id="paint25_linear_390_458" x1="414.895" y1="225.099" x2="465.923" y2="115.214" gradientUnits="userSpaceOnUse">
<stop stop-color="#BD2719"/>
<stop offset="0.2151" stop-color="#D41A10"/>
<stop offset="0.5049" stop-color="#EC0C07"/>
<stop offset="0.774" stop-color="#FA0302"/>
<stop offset="1" stop-color="#FF0000"/>
</linearGradient>
<linearGradient id="paint26_linear_390_458" x1="451.265" y1="119.249" x2="423.478" y2="211.5" gradientUnits="userSpaceOnUse">
<stop stop-color="#FC8D41"/>
<stop offset="0.0900324" stop-color="#FC7837"/>
<stop offset="0.294" stop-color="#FD4D24"/>
<stop offset="0.4922" stop-color="#FE2C14"/>
<stop offset="0.6802" stop-color="#FF1409"/>
<stop offset="0.854" stop-color="#FF0502"/>
<stop offset="1" stop-color="#FF0000"/>
</linearGradient>
<radialGradient id="paint27_radial_390_458" cx="0" cy="0" r="1" gradientUnits="userSpaceOnUse" gradientTransform="translate(423.061 165.949) rotate(44.996) scale(89.7444 89.7382)">
<stop stop-color="#512D00"/>
<stop offset="1"/>
</radialGradient>
<radialGradient id="paint28_radial_390_458" cx="0" cy="0" r="1" gradientUnits="userSpaceOnUse" gradientTransform="translate(440.532 148.183) scale(78.7353 78.7353)">
<stop offset="0.4873" stop-color="#F5CBC0" stop-opacity="0"/>
<stop offset="1" stop-color="#E67E62"/>
</radialGradient>
<linearGradient id="paint29_linear_390_458" x1="433.241" y1="137.116" x2="436.594" y2="77.595" gradientUnits="userSpaceOnUse">
<stop stop-color="#BD2719"/>
<stop offset="0.0422031" stop-color="#B42717"/>
<stop offset="0.257" stop-color="#89250F"/>
<stop offset="0.4654" stop-color="#682408"/>
<stop offset="0.6634" stop-color="#502304"/>
<stop offset="0.8464" stop-color="#412201"/>
<stop offset="1" stop-color="#3C2200"/>
</linearGradient>
<radialGradient id="paint30_radial_390_458" cx="0" cy="0" r="1" gradientUnits="userSpaceOnUse" gradientTransform="translate(329.458 128.902) scale(106.768 106.768)">
<stop stop-color="white" stop-opacity="0.5"/>
<stop offset="1" stop-color="white" stop-opacity="0"/>
</radialGradient>
<clipPath id="clip0_390_458">
<rect width="650" height="650" fill="white"/>
</clipPath>
</defs>
</svg>
