<svg width="267" height="53" viewBox="0 0 267 53" fill="none" xmlns="http://www.w3.org/2000/svg">
<path d="M57.7084 42C57.1019 42 56.6056 41.807 56.2196 41.421C55.8336 41.0074 55.6406 40.4973 55.6406 39.8908V22.3553C55.6406 21.7487 55.8336 21.2524 56.2196 20.8664C56.6056 20.4528 57.1019 20.246 57.7084 20.246C58.2874 20.246 58.7699 20.4528 59.1559 20.8664C59.5695 21.2524 59.7763 21.7487 59.7763 22.3553V26.9873L59.3627 25.2089C59.5833 24.4369 59.9142 23.7201 60.3553 23.0583C60.824 22.3966 61.3754 21.8176 62.0096 21.3213C62.6437 20.825 63.3468 20.439 64.1188 20.1633C64.9184 19.8876 65.7455 19.7497 66.6003 19.7497C67.3171 19.7497 67.9375 19.9427 68.4613 20.3288C68.9852 20.7148 69.2471 21.1973 69.2471 21.7763C69.2471 22.5207 69.0541 23.0721 68.6681 23.4306C68.2821 23.7614 67.8548 23.9268 67.386 23.9268C66.9725 23.9268 66.5727 23.8441 66.1867 23.6787C65.8007 23.4857 65.3457 23.3892 64.8219 23.3892C64.2429 23.3892 63.6501 23.5408 63.0435 23.8441C62.4369 24.1474 61.8855 24.6023 61.3892 25.2089C60.8929 25.7879 60.4932 26.4772 60.1899 27.2768C59.9142 28.0764 59.7763 28.9724 59.7763 29.965V39.8908C59.7763 40.4973 59.5695 41.0074 59.1559 41.421C58.7699 41.807 58.2874 42 57.7084 42ZM92.4282 31.123C92.4282 33.3287 91.9457 35.2863 90.9807 36.9958C90.0157 38.6776 88.7061 40.0011 87.0518 40.9661C85.3975 41.9311 83.5364 42.4136 81.4685 42.4136C79.4007 42.4136 77.5396 41.9311 75.8853 40.9661C74.231 40.0011 72.9076 38.6776 71.915 36.9958C70.95 35.2863 70.4675 33.3287 70.4675 31.123C70.4675 28.8897 70.95 26.9321 71.915 25.2503C72.9076 23.5408 74.231 22.2036 75.8853 21.2386C77.5396 20.246 79.4007 19.7497 81.4685 19.7497C83.5364 19.7497 85.3975 20.246 87.0518 21.2386C88.7061 22.2036 90.0157 23.5408 90.9807 25.2503C91.9457 26.9321 92.4282 28.8897 92.4282 31.123ZM88.2925 31.123C88.2925 29.6066 87.9892 28.2969 87.3826 27.1941C86.7761 26.0636 85.9489 25.1813 84.9012 24.5472C83.8811 23.8855 82.7368 23.5546 81.4685 23.5546C80.2002 23.5546 79.0422 23.8855 77.9945 24.5472C76.9468 25.1813 76.1197 26.0636 75.5131 27.1941C74.9065 28.2969 74.6032 29.6066 74.6032 31.123C74.6032 32.5843 74.9065 33.8802 75.5131 35.0106C76.1197 36.141 76.9468 37.0233 77.9945 37.6575C79.0422 38.2916 80.2002 38.6087 81.4685 38.6087C82.7368 38.6087 83.8811 38.2916 84.9012 37.6575C85.9489 37.0233 86.7761 36.141 87.3826 35.0106C87.9892 33.8802 88.2925 32.5843 88.2925 31.123ZM106.332 19.7497C107.821 19.7497 109.144 19.9152 110.302 20.246C111.46 20.5493 112.356 20.9905 112.991 21.5695C113.652 22.1209 113.983 22.7688 113.983 23.5133C113.983 23.982 113.845 24.4231 113.57 24.8367C113.294 25.2227 112.88 25.4157 112.329 25.4157C111.943 25.4157 111.612 25.3468 111.336 25.2089C111.088 25.0711 110.854 24.9056 110.633 24.7126C110.413 24.5196 110.137 24.3266 109.806 24.1336C109.503 23.9682 109.048 23.8303 108.441 23.7201C107.862 23.6098 107.338 23.5546 106.87 23.5546C105.408 23.5546 104.14 23.8855 103.065 24.5472C102.017 25.2089 101.19 26.105 100.583 27.2354C100.004 28.3659 99.7149 29.6479 99.7149 31.0817C99.7149 32.5154 100.004 33.7975 100.583 34.9279C101.19 36.0583 102.003 36.9544 103.023 37.6161C104.071 38.2778 105.284 38.6087 106.663 38.6087C107.49 38.6087 108.166 38.5536 108.689 38.4433C109.213 38.3054 109.668 38.14 110.054 37.947C110.468 37.6988 110.812 37.4507 111.088 37.2025C111.391 36.9268 111.805 36.789 112.329 36.789C112.935 36.789 113.39 36.982 113.694 37.368C114.025 37.7264 114.19 38.1813 114.19 38.7328C114.19 39.3393 113.818 39.9321 113.073 40.5111C112.356 41.0626 111.391 41.5175 110.178 41.8759C108.965 42.2344 107.628 42.4136 106.167 42.4136C104.016 42.4136 102.141 41.9173 100.542 40.9247C98.9704 39.9321 97.7435 38.5811 96.8612 36.8717C96.0065 35.1623 95.5791 33.2322 95.5791 31.0817C95.5791 28.9035 96.0341 26.9735 96.9439 25.2916C97.8538 23.5822 99.1221 22.2312 100.749 21.2386C102.376 20.246 104.237 19.7497 106.332 19.7497ZM120.127 42C119.548 42 119.052 41.807 118.638 41.421C118.252 41.0074 118.059 40.4973 118.059 39.8908V13.5048C118.059 12.8982 118.252 12.4019 118.638 12.0159C119.052 11.6024 119.548 11.3956 120.127 11.3956C120.734 11.3956 121.23 11.6024 121.616 12.0159C122.002 12.4019 122.195 12.8982 122.195 13.5048V39.8908C122.195 40.4973 122.002 41.0074 121.616 41.421C121.23 41.807 120.734 42 120.127 42ZM133.609 20.1633C134.133 20.1633 134.588 20.3839 134.974 20.825C135.36 21.2662 135.553 21.7073 135.553 22.1485C135.553 22.6999 135.291 23.21 134.767 23.6787L121.823 35.2588L121.657 30.5027L132.079 20.825C132.52 20.3839 133.03 20.1633 133.609 20.1633ZM134.106 41.9586C133.527 41.9586 133.03 41.7243 132.617 41.2556L124.345 32.5292L127.489 29.6342L135.553 38.3606C135.994 38.8293 136.215 39.3531 136.215 39.9321C136.215 40.5387 135.967 41.035 135.471 41.421C135.002 41.7794 134.547 41.9586 134.106 41.9586ZM149.58 42.4136C147.291 42.4136 145.306 41.9449 143.624 41.0074C141.943 40.0424 140.633 38.7328 139.695 37.0785C138.786 35.3966 138.331 33.4804 138.331 31.3298C138.331 28.9035 138.813 26.8356 139.778 25.1262C140.771 23.3892 142.053 22.0658 143.624 21.1559C145.196 20.2185 146.864 19.7497 148.629 19.7497C149.98 19.7497 151.262 20.0255 152.475 20.5769C153.688 21.1008 154.763 21.8452 155.701 22.8102C156.666 23.7476 157.424 24.8643 157.975 26.1601C158.527 27.4284 158.816 28.8208 158.844 30.3372C158.816 30.8887 158.596 31.3436 158.182 31.702C157.769 32.0605 157.286 32.2397 156.735 32.2397H140.647L139.654 28.7243H155.204L154.419 29.4687V28.4348C154.364 27.4698 154.046 26.6289 153.467 25.912C152.888 25.1676 152.172 24.6023 151.317 24.2163C150.462 23.8028 149.566 23.596 148.629 23.596C147.802 23.596 147.002 23.7338 146.23 24.0096C145.486 24.2577 144.81 24.6713 144.203 25.2503C143.624 25.8293 143.156 26.6013 142.797 27.5663C142.466 28.5037 142.301 29.6755 142.301 31.0817C142.301 32.5981 142.618 33.9215 143.252 35.052C143.886 36.1824 144.741 37.0647 145.816 37.6988C146.892 38.3054 148.077 38.6087 149.373 38.6087C150.393 38.6087 151.234 38.5122 151.896 38.3192C152.558 38.0986 153.109 37.8367 153.55 37.5334C153.991 37.2301 154.377 36.9406 154.708 36.6649C155.122 36.4168 155.535 36.2927 155.949 36.2927C156.445 36.2927 156.859 36.4719 157.19 36.8303C157.52 37.1612 157.686 37.561 157.686 38.0297C157.686 38.6363 157.383 39.1877 156.776 39.684C156.032 40.4008 154.998 41.035 153.674 41.5864C152.378 42.1379 151.014 42.4136 149.58 42.4136ZM162.816 20.4942H172.535C173.086 20.4942 173.541 20.6872 173.899 21.0732C174.285 21.4316 174.478 21.8865 174.478 22.438C174.478 22.9618 174.285 23.403 173.899 23.7614C173.541 24.1198 173.086 24.2991 172.535 24.2991H162.816C162.264 24.2991 161.795 24.1198 161.409 23.7614C161.051 23.3754 160.872 22.9205 160.872 22.3966C160.872 21.8452 161.051 21.3903 161.409 21.0318C161.795 20.6734 162.264 20.4942 162.816 20.4942ZM167.158 15.1177C167.765 15.1177 168.261 15.3245 168.647 15.7381C169.033 16.1241 169.226 16.6204 169.226 17.227V36.4168C169.226 36.913 169.309 37.3128 169.474 37.6161C169.639 37.9194 169.86 38.1262 170.136 38.2365C170.439 38.3468 170.742 38.4019 171.046 38.4019C171.349 38.4019 171.611 38.3468 171.831 38.2365C172.08 38.1262 172.369 38.0711 172.7 38.0711C173.031 38.0711 173.334 38.2227 173.61 38.526C173.886 38.8293 174.023 39.2428 174.023 39.7667C174.023 40.4284 173.665 40.9661 172.948 41.3796C172.231 41.7932 171.459 42 170.632 42C170.163 42 169.612 41.9586 168.978 41.8759C168.344 41.7932 167.723 41.5864 167.117 41.2556C166.538 40.9247 166.055 40.4008 165.669 39.684C165.283 38.9396 165.09 37.9056 165.09 36.5822V17.227C165.09 16.6204 165.283 16.1241 165.669 15.7381C166.083 15.3245 166.579 15.1177 167.158 15.1177ZM196.268 11.3956C196.874 11.3956 197.371 11.5886 197.757 11.9746C198.143 12.3606 198.336 12.8706 198.336 13.5048V39.8908C198.336 40.4973 198.143 41.0074 197.757 41.421C197.371 41.807 196.874 42 196.268 42C195.689 42 195.193 41.807 194.779 41.421C194.393 41.0074 194.2 40.4973 194.2 39.8908V36.913L195.068 36.9544C195.068 37.4507 194.862 38.0159 194.448 38.6501C194.062 39.2566 193.524 39.8494 192.835 40.4284C192.146 41.0074 191.332 41.4899 190.395 41.8759C189.458 42.2344 188.451 42.4136 187.376 42.4136C185.474 42.4136 183.764 41.9311 182.248 40.9661C180.731 39.9735 179.532 38.6363 178.65 36.9544C177.767 35.245 177.326 33.2874 177.326 31.0817C177.326 28.8759 177.767 26.9321 178.65 25.2503C179.532 23.5408 180.717 22.2036 182.206 21.2386C183.723 20.246 185.405 19.7497 187.252 19.7497C188.41 19.7497 189.485 19.9427 190.478 20.3288C191.498 20.7148 192.38 21.211 193.125 21.8176C193.869 22.4242 194.448 23.0721 194.862 23.7614C195.275 24.4231 195.482 25.0573 195.482 25.6638L194.2 25.7879V13.5048C194.2 12.8982 194.393 12.4019 194.779 12.0159C195.193 11.6024 195.689 11.3956 196.268 11.3956ZM187.831 38.6087C189.154 38.6087 190.299 38.2778 191.264 37.6161C192.256 36.9544 193.028 36.0583 193.58 34.9279C194.131 33.7975 194.407 32.5154 194.407 31.0817C194.407 29.6479 194.131 28.3659 193.58 27.2354C193.028 26.105 192.256 25.2089 191.264 24.5472C190.271 23.8855 189.127 23.5546 187.831 23.5546C186.563 23.5546 185.432 23.8855 184.44 24.5472C183.475 25.2089 182.703 26.105 182.124 27.2354C181.572 28.3659 181.296 29.6479 181.296 31.0817C181.296 32.5154 181.572 33.7975 182.124 34.9279C182.703 36.0583 183.475 36.9544 184.44 37.6161C185.432 38.2778 186.563 38.6087 187.831 38.6087ZM224.56 31.123C224.56 33.3287 224.078 35.2863 223.113 36.9958C222.148 38.6776 220.838 40.0011 219.184 40.9661C217.529 41.9311 215.668 42.4136 213.6 42.4136C211.533 42.4136 209.671 41.9311 208.017 40.9661C206.363 40.0011 205.039 38.6776 204.047 36.9958C203.082 35.2863 202.599 33.3287 202.599 31.123C202.599 28.8897 203.082 26.9321 204.047 25.2503C205.039 23.5408 206.363 22.2036 208.017 21.2386C209.671 20.246 211.533 19.7497 213.6 19.7497C215.668 19.7497 217.529 20.246 219.184 21.2386C220.838 22.2036 222.148 23.5408 223.113 25.2503C224.078 26.9321 224.56 28.8897 224.56 31.123ZM220.424 31.123C220.424 29.6066 220.121 28.2969 219.515 27.1941C218.908 26.0636 218.081 25.1813 217.033 24.5472C216.013 23.8855 214.869 23.5546 213.6 23.5546C212.332 23.5546 211.174 23.8855 210.126 24.5472C209.079 25.1813 208.252 26.0636 207.645 27.1941C207.038 28.2969 206.735 29.6066 206.735 31.123C206.735 32.5843 207.038 33.8802 207.645 35.0106C208.252 36.141 209.079 37.0233 210.126 37.6575C211.174 38.2916 212.332 38.6087 213.6 38.6087C214.869 38.6087 216.013 38.2916 217.033 37.6575C218.081 37.0233 218.908 36.141 219.515 35.0106C220.121 33.8802 220.424 32.5843 220.424 31.123ZM238.464 19.7497C239.953 19.7497 241.276 19.9152 242.434 20.246C243.592 20.5493 244.488 20.9905 245.122 21.5695C245.784 22.1209 246.115 22.7688 246.115 23.5133C246.115 23.982 245.977 24.4231 245.701 24.8367C245.426 25.2227 245.012 25.4157 244.461 25.4157C244.075 25.4157 243.744 25.3468 243.468 25.2089C243.22 25.0711 242.986 24.9056 242.765 24.7126C242.545 24.5196 242.269 24.3266 241.938 24.1336C241.635 23.9682 241.18 23.8303 240.573 23.7201C239.994 23.6098 239.47 23.5546 239.002 23.5546C237.54 23.5546 236.272 23.8855 235.197 24.5472C234.149 25.2089 233.322 26.105 232.715 27.2354C232.136 28.3659 231.847 29.6479 231.847 31.0817C231.847 32.5154 232.136 33.7975 232.715 34.9279C233.322 36.0583 234.135 36.9544 235.155 37.6161C236.203 38.2778 237.416 38.6087 238.795 38.6087C239.622 38.6087 240.297 38.5536 240.821 38.4433C241.345 38.3054 241.8 38.14 242.186 37.947C242.6 37.6988 242.944 37.4507 243.22 37.2025C243.523 36.9268 243.937 36.789 244.461 36.789C245.067 36.789 245.522 36.982 245.826 37.368C246.156 37.7264 246.322 38.1813 246.322 38.7328C246.322 39.3393 245.95 39.9321 245.205 40.5111C244.488 41.0626 243.523 41.5175 242.31 41.8759C241.097 42.2344 239.76 42.4136 238.298 42.4136C236.148 42.4136 234.273 41.9173 232.674 40.9247C231.102 39.9321 229.875 38.5811 228.993 36.8717C228.138 35.1623 227.711 33.2322 227.711 31.0817C227.711 28.9035 228.166 26.9735 229.076 25.2916C229.986 23.5822 231.254 22.2312 232.881 21.2386C234.507 20.246 236.368 19.7497 238.464 19.7497ZM248.578 38.6087C248.33 38.2227 248.22 37.7816 248.247 37.2853C248.275 36.7614 248.564 36.3203 249.116 35.9618C249.502 35.7137 249.901 35.6172 250.315 35.6723C250.756 35.6999 251.17 35.9067 251.556 36.2927C252.328 37.1474 253.183 37.8229 254.12 38.3192C255.085 38.8155 256.243 39.0636 257.594 39.0636C258.145 39.0361 258.711 38.9533 259.29 38.8155C259.869 38.6501 260.365 38.3743 260.778 37.9883C261.192 37.5748 261.399 36.982 261.399 36.21C261.399 35.5207 261.178 34.9693 260.737 34.5557C260.296 34.1421 259.717 33.8112 259 33.5631C258.283 33.2874 257.511 33.0392 256.684 32.8187C255.802 32.5705 254.906 32.2948 253.996 31.9915C253.114 31.6882 252.314 31.3022 251.597 30.8335C250.88 30.3372 250.287 29.7031 249.819 28.9311C249.378 28.1591 249.157 27.2079 249.157 26.0774C249.157 24.7816 249.515 23.6649 250.232 22.7275C250.977 21.79 251.928 21.0594 253.086 20.5355C254.272 20.0117 255.554 19.7497 256.932 19.7497C257.732 19.7497 258.573 19.86 259.455 20.0806C260.337 20.2736 261.192 20.5907 262.019 21.0318C262.846 21.473 263.563 22.052 264.17 22.7688C264.445 23.1273 264.597 23.5546 264.625 24.0509C264.68 24.5472 264.459 24.9883 263.963 25.3743C263.632 25.6501 263.232 25.7741 262.764 25.7466C262.295 25.719 261.909 25.5673 261.606 25.2916C261.082 24.6299 260.406 24.1198 259.579 23.7614C258.752 23.3754 257.815 23.1824 256.767 23.1824C256.243 23.1824 255.692 23.2651 255.113 23.4306C254.561 23.5684 254.092 23.8303 253.706 24.2163C253.32 24.6023 253.127 25.1676 253.127 25.912C253.127 26.6013 253.348 27.1527 253.789 27.5663C254.258 27.9799 254.864 28.3245 255.609 28.6002C256.353 28.8759 257.167 29.1241 258.049 29.3447C258.904 29.5652 259.745 29.8272 260.572 30.1304C261.426 30.4337 262.185 30.8335 262.846 31.3298C263.536 31.7985 264.087 32.4189 264.501 33.1909C264.942 33.9353 265.162 34.8865 265.162 36.0445C265.162 37.3955 264.763 38.5536 263.963 39.5186C263.191 40.456 262.198 41.1729 260.985 41.6691C259.8 42.1654 258.545 42.4136 257.222 42.4136C255.65 42.4136 254.079 42.1379 252.507 41.5864C250.963 41.0074 249.653 40.0148 248.578 38.6087Z" fill="#7553FF"/>
<rect y="8.99072" width="43.1555" height="43.1555" rx="4.79505" fill="#7553FF"/>
<path d="M8.39374 32.2247C11.3339 32.5741 14.071 33.9025 16.1646 35.9962C18.2583 38.0898 19.5867 40.8269 19.9361 43.7671C21.3936 42.9268 22.6128 41.7287 23.4783 40.2861C24.3439 38.8435 24.8273 37.204 24.8828 35.5225C27.6515 34.5485 30.0692 32.7754 31.8303 30.4274C33.5913 28.0794 34.6165 25.2619 34.7763 22.3312C34.7763 21.0193 34.2551 19.7611 33.3274 18.8334C32.3997 17.9057 31.1415 17.3845 29.8296 17.3845C26.8989 17.5443 24.0814 18.5695 21.7334 20.3305C19.3854 22.0916 17.6123 24.5093 16.6383 27.278C14.9568 27.3335 13.3173 27.8169 11.8747 28.6825C10.4321 29.548 9.23401 30.7672 8.39374 32.2247Z" stroke="white" stroke-width="2.39753" stroke-linecap="round" stroke-linejoin="round"/>
<path d="M13.3404 33.8735C11.6243 34.8424 10.2366 36.3017 9.35528 38.0644C8.47394 39.827 8.13911 41.8128 8.39371 43.767C10.3479 44.0216 12.3337 43.6868 14.0963 42.8054C15.859 41.9241 17.3183 40.5364 18.2872 38.8203" stroke="white" stroke-width="2.39753" stroke-linecap="round" stroke-linejoin="round"/>
<path d="M26.5317 27.2779C27.4424 27.2779 28.1806 26.5397 28.1806 25.629C28.1806 24.7183 27.4424 23.9801 26.5317 23.9801C25.6211 23.9801 24.8828 24.7183 24.8828 25.629C24.8828 26.5397 25.6211 27.2779 26.5317 27.2779Z" stroke="white" stroke-width="2.39753" stroke-linecap="round" stroke-linejoin="round"/>
</svg>
